<svg xmlns="http://www.w3.org/2000/svg" viewBox="0 0 512 512" width="512" height="512">
  <defs>
    <linearGradient id="bgGrad" x1="0%" y1="0%" x2="0%" y2="100%">
      <stop offset="0%" stop-color="#02184d"/>
      <stop offset="100%" stop-color="#000b21"/>
    </linearGradient>
  </defs>
  <rect width="512" height="512" rx="120" fill="url(#bgGrad)"/>
  <rect width="504" height="504" x="4" y="4" rx="116" fill="none" stroke="#ffffff" stroke-opacity="0.1" stroke-width="8"/>
  <g transform="translate(62, 175)">
    <!-- H -->
    <path d="M 0 0 H 32 V 42 H 72 V 0 H 104 V 110 H 72 V 68 H 32 V 110 H 0 Z" fill="#ffffff"/>
    <rect x="0" y="42" width="32" height="26" fill="#0072ff"/>
    <!-- E -->
    <path d="M 124 0 H 204 V 28 H 156 V 42 H 198 V 68 H 156 V 82 H 204 V 110 H 124 Z" fill="#ffffff"/>
    <!-- R -->
    <path d="M 224 0 H 280 C 302 0 316 10 316 30 C 316 46 305 56 290 60 L 322 110 H 284 L 256 64 H 256 V 110 H 224 Z M 256 24 V 42 H 278 C 285 42 288 38 288 33 C 288 28 285 24 278 24 Z" fill="#ffffff"/>
    <!-- O -->
    <circle cx="356" cy="55" r="42" fill="none" stroke="#0072ff" stroke-width="26"/>
  </g>
  <!-- ATLAS -->
  <text x="256" y="348" font-family="-apple-system, BlinkMacSystemFont, 'Segoe UI', Roboto, 'Helvetica Neue', sans-serif" font-weight="900" font-size="34" fill="#0a84ff" letter-spacing="12" text-anchor="middle">— A T L A S —</text>
</svg>
